<mxfile modified="2020-11-20T00:10:54.351Z" host="1170db29-60b5-4644-8f5b-9371c20fe043" agent="5.0 (Macintosh; Intel Mac OS X 10_15_7) AppleWebKit/537.36 (KHTML, like Gecko) Code/1.51.1 Chrome/83.0.4103.122 Electron/9.3.3 Safari/537.36" etag="95LQJMF2WgYsaQcdmVwW" version="13.6.5">
    <diagram id="UkqDDxXulxUN-NViC9nC" name="Page-1">
        <mxGraphModel dx="692" dy="955" grid="1" gridSize="10" guides="1" tooltips="1" connect="1" arrows="1" fold="1" page="1" pageScale="1" pageWidth="850" pageHeight="1100" math="0" shadow="0">
            <root>
                <mxCell id="0"/>
                <mxCell id="1" parent="0"/>
                <object label="&lt;font style=&quot;font-size: 17px&quot;&gt;&lt;b&gt;Write ahead log&lt;/b&gt;&lt;/font&gt;" stencilType="document" id="YW_iXGMyYTQzQY0_u3cw-1">
                    <mxCell style="shape=mxgraph.basic.document;whiteSpace=wrap;html=1;strokeColor=#000000;strokeWidth=2;verticalAlign=top;labelPosition=center;verticalLabelPosition=bottom;align=center;fillColor=#E6E6E6;" parent="1" vertex="1">
                        <mxGeometry x="280" y="80" width="320" height="530" as="geometry"/>
                    </mxCell>
                </object>
                <object label="&lt;div&gt;Metadata section&lt;/div&gt;&lt;div&gt;1024Bytes&lt;br&gt;&lt;/div&gt;&lt;div&gt;&lt;br&gt;&lt;/div&gt;" stencilType="generic-component" id="YW_iXGMyYTQzQY0_u3cw-3">
                    <mxCell style="rounded=0;whiteSpace=wrap;html=1;strokeWidth=2;" parent="1" vertex="1">
                        <mxGeometry x="300" y="110" width="235" height="60" as="geometry"/>
                    </mxCell>
                </object>
                <object label="&lt;div style=&quot;font-size: 16px&quot;&gt;&lt;font style=&quot;font-size: 16px&quot;&gt;&lt;b&gt;log entries&lt;br&gt;&lt;br&gt;&lt;/b&gt;&lt;/font&gt;&lt;/div&gt;" stencilType="ext" id="YW_iXGMyYTQzQY0_u3cw-4">
                    <mxCell style="shape=ext;double=1;rounded=0;whiteSpace=wrap;html=1;labelPosition=center;verticalLabelPosition=bottom;align=center;verticalAlign=top;strokeWidth=2;" parent="1" vertex="1">
                        <mxGeometry x="300" y="190" width="240" height="350" as="geometry"/>
                    </mxCell>
                </object>
                <object label="" stencilType="generic-channel" id="YW_iXGMyYTQzQY0_u3cw-12">
                    <mxCell style="edgeStyle=orthogonalEdgeStyle;rounded=0;html=1;entryX=0;entryY=0.5;entryDx=0;entryDy=0;entryPerimeter=0;jettySize=auto;orthogonalLoop=1;fontSize=20;fontStyle=1;" parent="1" source="YW_iXGMyYTQzQY0_u3cw-6" target="YW_iXGMyYTQzQY0_u3cw-11" edge="1">
                        <mxGeometry relative="1" as="geometry"/>
                    </mxCell>
                </object>
                <object label="Log Entry" stencilType="card" id="YW_iXGMyYTQzQY0_u3cw-6">
                    <mxCell style="verticalLabelPosition=middle;verticalAlign=middle;html=1;strokeWidth=2;shape=card;whiteSpace=wrap;size=20;arcSize=12;labelPosition=center;align=center;" parent="1" vertex="1">
                        <mxGeometry x="310" y="200" width="220" height="60" as="geometry"/>
                    </mxCell>
                </object>
                <object label="Log Entry" stencilType="card" id="YW_iXGMyYTQzQY0_u3cw-10">
                    <mxCell style="verticalLabelPosition=middle;verticalAlign=middle;html=1;strokeWidth=2;shape=card;whiteSpace=wrap;size=20;arcSize=12;labelPosition=center;align=center;" parent="1" vertex="1">
                        <mxGeometry x="310" y="270" width="220" height="60" as="geometry"/>
                    </mxCell>
                </object>
                <object label="&lt;b&gt;contains&lt;/b&gt;" stencilType="annotation_2" id="YW_iXGMyYTQzQY0_u3cw-11">
                    <mxCell style="strokeWidth=2;html=1;shape=mxgraph.flowchart.annotation_2;align=center;verticalAlign=bottom;labelPosition=center;verticalLabelPosition=top;" parent="1" vertex="1">
                        <mxGeometry x="650" y="165" width="50" height="130" as="geometry"/>
                    </mxCell>
                </object>
                <object label="&lt;div&gt;Header (2 Bytes)&lt;/div&gt;&lt;div&gt;LittleEdian&lt;br&gt;&lt;/div&gt;" stencilType="generic-component" id="YW_iXGMyYTQzQY0_u3cw-13">
                    <mxCell style="rounded=0;whiteSpace=wrap;html=1;strokeWidth=2;" parent="1" vertex="1">
                        <mxGeometry x="690" y="177.5" width="120" height="45" as="geometry"/>
                    </mxCell>
                </object>
                <object label="&lt;div&gt;Body&lt;br&gt;&lt;/div&gt;&lt;div&gt;COBR encoding&lt;br&gt;&lt;/div&gt;" stencilType="generic-component" id="YW_iXGMyYTQzQY0_u3cw-14">
                    <mxCell style="rounded=0;whiteSpace=wrap;html=1;strokeWidth=2;" parent="1" vertex="1">
                        <mxGeometry x="690" y="236" width="120" height="48" as="geometry"/>
                    </mxCell>
                </object>
            </root>
        </mxGraphModel>
    </diagram>
</mxfile>